HIERARCHY
ROOT Hips
{
	OFFSET 32.680599 13.923883 98.611801
	CHANNELS 6 Xposition Yposition Zposition Xrotation Yrotation Zrotation
	JOINT spine
	{
		OFFSET 0.000000 -0.477352 8.301041
		CHANNELS 3 Xrotation Yrotation Zrotation
		JOINT spine1
		{
			OFFSET 0.000000 -0.000002 10.456497
			CHANNELS 3 Xrotation Yrotation Zrotation
			JOINT spine2
			{
				OFFSET 0.000000 -0.000002 10.019203
				CHANNELS 3 Xrotation Yrotation Zrotation
				JOINT Neck
				{
					OFFSET 0.000000 -1.226414 25.723503
					CHANNELS 3 Xrotation Yrotation Zrotation
					JOINT Head
					{
						OFFSET 0.000000 -0.000001 7.771744
						CHANNELS 3 Xrotation Yrotation Zrotation
						End Site
						{
							OFFSET 0.000000 6.203937 18.811996
						}
					}
				}
				JOINT RightShoulder
				{
					OFFSET -4.218800 0.587437 10.820000
					CHANNELS 3 Xrotation Yrotation Zrotation
					JOINT RightArm
					{
						OFFSET 0.000000 -0.000002 14.191406
						CHANNELS 3 Xrotation Yrotation Zrotation
						JOINT RightArmRoll
						{
							OFFSET 0.000000 -0.000001 7.164078
							CHANNELS 3 Xrotation Yrotation Zrotation
							JOINT RightForeArm
							{
								OFFSET 0.000000 -0.000004 20.866501
								CHANNELS 3 Xrotation Yrotation Zrotation
								JOINT RightForeArmRoll
								{
									OFFSET 0.000000 -0.000001 8.039215
									CHANNELS 3 Xrotation Yrotation Zrotation
									JOINT RightHand
									{
										OFFSET 0.000000 -0.000003 16.132996
										CHANNELS 3 Xrotation Yrotation Zrotation
										End Site
										{
											OFFSET 0.000000 0.000000 0.100006
										}
									}
								}
							}
						}
					}
				}
				JOINT LeftShoulder
				{
					OFFSET 4.218800 0.587437 10.820000
					CHANNELS 3 Xrotation Yrotation Zrotation
					JOINT LeftArm
					{
						OFFSET 0.000000 -0.000002 14.191406
						CHANNELS 3 Xrotation Yrotation Zrotation
						JOINT LeftArmRoll
						{
							OFFSET 0.000000 -0.000001 7.164093
							CHANNELS 3 Xrotation Yrotation Zrotation
							JOINT LeftForeArm
							{
								OFFSET 0.000000 -0.000004 20.866501
								CHANNELS 3 Xrotation Yrotation Zrotation
								JOINT LeftForeArmRoll
								{
									OFFSET 0.000000 -0.000001 8.039215
									CHANNELS 3 Xrotation Yrotation Zrotation
									JOINT LeftHand
									{
										OFFSET 0.000000 -0.000003 16.132996
										CHANNELS 3 Xrotation Yrotation Zrotation
										End Site
										{
											OFFSET 0.000000 0.000000 0.100006
										}
									}
								}
							}
						}
					}
				}
			}
		}
	}
	JOINT RightUpLeg
	{
		OFFSET -7.357731 1.131820 -1.349213
		CHANNELS 3 Xrotation Yrotation Zrotation
		JOINT RightUpLegRoll
		{
			OFFSET 0.000000 -0.000003 18.916801
			CHANNELS 3 Xrotation Yrotation Zrotation
			JOINT RightLeg
			{
				OFFSET 0.000000 0.000004 -23.425598
				CHANNELS 3 Xrotation Yrotation Zrotation
				JOINT RightLegRoll
				{
					OFFSET 0.000000 -0.000004 23.502296
					CHANNELS 3 Xrotation Yrotation Zrotation
					JOINT RightFoot
					{
						OFFSET 0.000000 -0.000003 19.561707
						CHANNELS 3 Xrotation Yrotation Zrotation
						JOINT RightToeBase
						{
							OFFSET 0.000000 -0.000003 16.352600
							CHANNELS 3 Xrotation Yrotation Zrotation
							End Site
							{
								OFFSET 0.006931 0.912836 7.919434
							}
						}
					}
				}
			}
		}
	}
	JOINT LeftUpLeg
	{
		OFFSET 7.357731 1.131820 -1.349213
		CHANNELS 3 Xrotation Yrotation Zrotation
		JOINT LeftUpLegRoll
		{
			OFFSET 0.000000 -0.000003 18.916901
			CHANNELS 3 Xrotation Yrotation Zrotation
			JOINT LeftLeg
			{
				OFFSET 0.000000 -0.000004 23.425507
				CHANNELS 3 Xrotation Yrotation Zrotation
				JOINT LeftLegRoll
				{
					OFFSET 0.000000 -0.000004 23.719498
					CHANNELS 3 Xrotation Yrotation Zrotation
					JOINT LeftFoot
					{
						OFFSET 0.000000 -0.000003 19.344406
						CHANNELS 3 Xrotation Yrotation Zrotation
						JOINT LeftToeBase
						{
							OFFSET 0.000000 -0.000003 16.352600
							CHANNELS 3 Xrotation Yrotation Zrotation
							End Site
							{
								OFFSET -0.031063 0.912836 7.919434
							}
						}
					}
				}
			}
		}
	}
}
MOTION
Frames: 4
Frame Time: 0.041667
35.669399 1.632837 98.624489 -4.027970 -0.671439 2.349000 -0.913064 -0.178372 0.185202 2.177314 -0.365025 0.378623 3.822385 -0.360138 0.382919 20.599722 -0.991387 -1.767542 -5.989477 2.356620 -1.903878 -5.891595 -74.425190 -8.200614 -78.236334 -114.000891 -55.660178 0.000003 -0.000001 0.000001 0.087507 -11.732187 -0.055627 0.000002 0.000002 -3.031461 -5.000211 -7.998724 0.000172 12.491612 66.554354 -13.040318 -59.271535 108.460044 43.707173 -0.000000 0.000006 -0.000001 1.941830 10.965954 0.256946 -0.000001 -0.000005 3.014570 -5.000241 7.998743 -0.000147 2.475802 -179.474490 -0.010694 -179.999991 0.000005 -1.012994 174.995102 -4.748911 -0.620398 -0.000003 0.000003 0.057145 68.775415 6.837953 2.300577 25.456892 -7.369369 0.000001 0.583021 179.913016 3.458645 -0.000005 -0.000004 -1.134700 -11.083812 3.079836 1.081147 -0.000001 0.000001 -0.157998 69.919683 -6.862577 -2.132425 25.456877 7.362659 -0.000004 
35.675301 1.646014 98.622803 -4.026584 -0.670601 2.347326 -0.913169 -0.178275 0.185963 2.177105 -0.364909 0.380413 3.822175 -0.360022 0.384713 20.600243 -0.994313 -1.768652 -5.996467 2.362220 -1.905261 -5.898014 -74.422615 -8.207372 -78.242522 -113.992531 -55.672394 0.000000 -0.000002 0.000001 0.087506 -11.740389 -0.054439 0.000001 0.000002 -3.031462 -5.000210 -7.998724 0.000171 12.492868 66.554852 -13.041622 -59.255026 108.450099 43.692778 -0.000000 0.000007 -0.000001 1.935573 10.971691 0.256890 -0.000000 -0.000005 3.014570 -5.000241 7.998743 -0.000147 2.465729 -179.475474 -0.007849 -179.999991 0.000005 -1.012994 174.978026 -4.751767 -0.621076 -0.000003 0.000003 0.057332 68.769514 6.837930 2.300639 25.456889 -7.369369 0.000000 0.576909 179.912019 3.455655 -0.000005 -0.000004 -1.134680 -11.096049 3.081709 1.081467 -0.000001 0.000002 -0.157995 69.920421 -6.862566 -2.132379 25.456873 7.362659 -0.000003 
35.675900 1.634557 98.634590 -4.024954 -0.669760 2.345634 -0.913345 -0.178131 0.186738 2.176754 -0.364736 0.382293 3.821825 -0.359847 0.386594 20.600663 -0.997840 -1.769848 -6.003402 2.368256 -1.906797 -5.904723 -74.420423 -8.214470 -78.250527 -113.983686 -55.687137 0.000002 -0.000001 0.000002 0.087509 -11.749489 -0.053136 0.000004 0.000002 -3.031461 -5.000209 -7.998724 0.000172 12.494744 66.555419 -13.043614 -59.240430 108.440017 43.680241 -0.000001 0.000008 -0.000001 1.929357 10.977427 0.256816 -0.000001 -0.000005 3.014571 -5.000241 7.998743 -0.000147 2.455591 -179.475474 -0.004975 -179.999991 0.000005 -1.012994 174.961497 -4.754641 -0.622708 -0.000003 0.000002 0.057504 68.764029 6.837935 2.300577 25.456889 -7.369369 0.000001 0.571122 179.910994 3.452883 -0.000005 -0.000004 -1.134660 -11.107082 3.083448 1.081708 -0.000001 0.000001 -0.157969 69.920947 -6.862548 -2.132544 25.456873 7.362660 -0.000005 
35.669300 1.625706 98.630898 -4.023135 -0.668917 2.343944 -0.913575 -0.177955 0.187522 2.176304 -0.364523 0.384234 3.821375 -0.359633 0.388537 20.601092 -1.001787 -1.771115 -6.010288 2.374621 -1.908410 -5.911615 -74.418429 -8.221777 -78.259262 -113.974465 -55.703014 0.000003 -0.000001 0.000002 0.087507 -11.759188 -0.051754 0.000004 0.000002 -3.031460 -5.000208 -7.998724 0.000170 12.497137 66.556136 -13.046182 -59.227282 108.429752 43.669204 -0.000001 0.000007 -0.000002 1.923181 10.983162 0.256728 0.000002 -0.000005 3.014570 -5.000241 7.998744 -0.000147 2.445390 -179.476485 -0.002152 -179.999991 0.000005 -1.012994 174.945310 -4.757516 -0.623316 -0.000003 0.000003 0.057667 68.758866 6.837919 2.300494 25.456890 -7.369369 0.000001 0.565562 179.909997 3.450261 -0.000005 -0.000004 -1.134630 -11.117417 3.085105 1.081903 -0.000001 0.000002 -0.157926 69.921384 -6.862595 -2.132425 25.456875 7.362660 -0.000005 
